<?xml version="1.0" standalone="no"?>
<!DOCTYPE svg PUBLIC "-//W3C//DTD SVG 20010904//EN"
 "http://www.w3.org/TR/2001/REC-SVG-20010904/DTD/svg10.dtd">
<svg version="1.0" xmlns="http://www.w3.org/2000/svg"
 width="260.000000pt" height="260.000000pt" viewBox="0 0 260.000000 260.000000"
 preserveAspectRatio="xMidYMid meet">
<metadata>
Created by potrace 1.11, written by Peter Selinger 2001-2013
</metadata>
<g transform="translate(0.000000,260.000000) scale(0.100000,-0.100000)"
fill="#000000" stroke="none">
<path d="M1127 2289 c-73 -13 -142 -34 -213 -64 -116 -50 -166 -74 -174 -85
-3 -3 -32 -24 -65 -45 -141 -92 -302 -309 -360 -485 -58 -177 -67 -344 -29
-527 18 -90 20 -94 38 -87 7 3 16 -2 19 -10 4 -10 1 -16 -8 -16 -33 0 31 -128
125 -251 147 -192 276 -293 466 -367 132 -51 220 -65 394 -64 133 1 169 5 255
27 121 32 296 115 386 183 140 107 267 275 330 436 96 249 84 553 -32 783 -84
167 -157 259 -286 360 -166 130 -412 223 -589 223 l-49 0 0 -35 c0 -19 -4 -35
-10 -34 -5 0 -10 18 -9 39 l1 40 -41 -1 c-23 0 -90 -9 -149 -20z m213 -124 c0
-24 -5 -35 -15 -35 -10 0 -15 11 -15 35 0 24 5 35 15 35 10 0 15 -11 15 -35z
m0 -85 c0 -29 -4 -40 -15 -40 -10 0 -15 10 -15 34 0 29 6 38 28 45 1 1 2 -17
2 -39z m0 -95 c0 -24 -5 -35 -15 -35 -10 0 -15 11 -15 35 0 24 5 35 15 35 10
0 15 -11 15 -35z m0 -96 c0 -52 -24 -48 -28 4 -2 28 1 37 12 37 12 0 16 -11
16 -41z m0 -89 c0 -29 -4 -40 -15 -40 -11 0 -15 11 -15 40 0 29 4 40 15 40 11
0 15 -11 15 -40z m-612 -42 c2 -16 -2 -28 -8 -28 -6 0 -10 6 -9 13 4 28 -2 37
-26 37 -17 0 -29 -7 -35 -22 -8 -22 -9 -22 -9 -2 -1 29 8 35 49 32 30 -3 35
-7 38 -30z m122 13 c5 -11 10 -37 10 -58 0 -64 -41 -96 -81 -64 -17 14 -22 28
-22 64 0 25 5 53 13 61 18 23 67 20 80 -3z m101 -78 c-22 -37 -41 -64 -41 -60
0 12 73 137 78 132 2 -2 -14 -34 -37 -72z m-54 45 c-1 -15 4 -23 17 -26 16 -3
18 1 14 23 -4 17 -2 23 4 17 16 -16 4 -47 -18 -50 -23 -3 -37 18 -28 43 9 22
14 18 11 -7z m443 -28 c0 -29 -4 -40 -15 -40 -11 0 -15 11 -15 40 0 29 4 40
15 40 11 0 15 -11 15 -40z m-615 -4 c23 -35 5 -66 -38 -66 -36 0 -57 15 -57
40 0 11 5 8 18 -8 24 -31 66 -27 70 6 3 17 -2 25 -17 29 -24 6 -28 23 -6 23 8
0 22 -11 30 -24z m290 -27 c4 -12 3 -25 -2 -30 -6 -6 -9 -1 -9 12 1 12 -5 24
-11 26 -19 7 -29 -27 -12 -38 10 -6 11 -9 1 -9 -16 0 -26 25 -18 45 8 22 44
18 51 -6z m325 -59 c0 -29 -4 -40 -15 -40 -10 0 -15 10 -15 33 0 19 3 37 7 40
15 16 23 5 23 -33z m-715 -65 c0 -13 -8 -21 -22 -23 -13 -2 -23 -10 -23 -18 0
-8 -4 -14 -10 -14 -5 0 -10 18 -10 41 0 39 1 40 33 37 24 -2 32 -8 32 -23z
m85 -15 c0 -22 -4 -40 -10 -40 -5 0 -10 7 -10 15 0 8 -7 15 -15 15 -8 0 -15
-7 -15 -15 0 -8 -4 -15 -10 -15 -5 0 -10 18 -10 40 0 39 1 40 35 40 34 0 35
-1 35 -40z m88 28 c31 -31 -11 -88 -50 -67 -18 9 -26 58 -11 72 11 11 48 8 61
-5z m80 5 c-13 -3 -18 -15 -18 -39 0 -19 -4 -34 -10 -34 -5 0 -10 15 -10 34 0
19 -6 37 -12 39 -7 3 5 5 27 5 22 0 32 -2 23 -5z m67 0 c-34 -8 -41 -23 -11
-23 15 0 25 -4 21 -10 -3 -5 -16 -10 -28 -10 -24 0 -13 -16 18 -23 13 -3 9 -5
-12 -6 -32 -1 -33 0 -33 39 0 39 1 40 33 39 21 -1 25 -3 12 -6z m45 -33 c0
-22 -4 -40 -10 -40 -5 0 -10 18 -10 40 0 22 5 40 10 40 6 0 10 -18 10 -40z
m53 18 l16 -23 0 23 c1 40 21 23 21 -18 0 -45 -11 -51 -34 -18 l-16 22 0 -22
c0 -12 -4 -22 -10 -22 -5 0 -10 18 -10 40 0 45 10 51 33 18z m298 -5 c9 -56 7
-63 -12 -63 -15 0 -19 7 -19 35 0 24 5 35 15 35 8 0 16 -3 16 -7z m399 -63 c0
-29 5 -51 13 -54 10 -5 10 -7 0 -12 -7 -3 -13 -15 -13 -26 0 -11 -5 -18 -12
-15 -7 2 -13 10 -13 18 0 8 -14 16 -35 19 -39 6 -40 16 -7 63 55 81 67 82 67
7z m121 42 c17 -15 22 -29 22 -65 0 -53 -23 -87 -59 -87 -51 0 -76 108 -34
150 25 25 41 25 71 2z m83 -18 c9 -3 16 -18 16 -33 l0 -26 21 33 c12 18 24 31
26 28 7 -7 -69 -136 -80 -136 -5 0 0 15 11 34 l20 35 -26 -2 c-21 -2 -28 3
-30 21 -7 44 7 59 42 46z m-597 -76 c-1 -22 -8 -34 -19 -36 -15 -3 -18 4 -18
32 0 29 4 36 19 36 15 0 19 -7 18 -32z m683 8 c6 -8 10 -25 8 -38 -2 -17 -10
-23 -28 -23 -18 0 -26 6 -28 23 -3 22 13 52 28 52 4 0 13 -7 20 -14z m-685
-106 c0 -51 -29 -48 -33 3 -3 33 -1 38 15 35 13 -2 18 -12 18 -38z m353 -22
c20 -20 14 -28 -18 -21 -23 4 -30 2 -30 -10 0 -22 16 -30 39 -18 14 8 21 8 24
-2 2 -6 9 5 16 26 16 49 36 47 54 -5 l15 -43 1 43 c1 39 3 42 28 42 14 0 35
-7 45 -17 17 -15 18 -15 18 1 0 13 7 17 33 14 26 -2 33 -8 35 -28 3 -25 47
-56 57 -40 3 4 -7 11 -21 14 -19 5 -25 12 -22 29 2 17 10 22 32 22 28 0 30 -3
33 -42 2 -30 -2 -43 -14 -47 -21 -8 -53 2 -53 17 0 8 -3 8 -8 -1 -5 -7 -22
-14 -38 -15 -25 -2 -29 2 -32 26 -2 15 -8 27 -13 27 -5 0 -7 -11 -3 -25 5 -19
2 -25 -10 -25 -9 0 -16 7 -16 15 0 8 -4 15 -9 15 -5 0 -11 -7 -15 -15 -6 -17
-51 -20 -61 -5 -5 8 -11 7 -21 0 -7 -7 -19 -10 -26 -7 -7 2 -21 0 -30 -5 -27
-14 -58 8 -58 40 0 31 16 52 40 52 9 0 21 -5 28 -12z m-381 -45 c4 -12 -55
-34 -69 -26 -15 8 -8 24 15 33 28 11 49 9 54 -7z m62 -12 c17 -24 19 -31 7
-40 -11 -9 -18 -6 -35 15 -22 28 -25 37 -14 47 12 12 21 7 42 -22z m-149 -15
c0 -16 -53 -31 -71 -20 -9 5 -7 11 6 21 25 17 65 17 65 -1z m-90 -21 c0 -14
-37 -35 -61 -35 -21 0 -7 29 19 38 38 14 42 14 42 -3z m291 -36 c17 -24 19
-33 9 -42 -17 -17 -64 41 -48 60 14 17 13 18 39 -18z m-381 7 c0 -8 -14 -19
-31 -25 -41 -14 -39 -14 -39 8 0 18 13 25 58 30 6 0 12 -5 12 -13z m-85 -25
c7 -12 -1 -17 -42 -26 -26 -5 -33 -3 -33 8 0 22 63 37 75 18z m-92 -25 c5 -13
-37 -36 -64 -36 -21 0 -6 29 19 38 37 14 39 14 45 -2z m612 -32 c12 -19 14
-29 6 -37 -15 -15 -56 25 -48 47 9 23 22 20 42 -10z m-698 0 c2 -6 -12 -15
-32 -21 -31 -10 -35 -9 -35 7 0 27 59 39 67 14z m-87 -29 c0 -8 -6 -15 -12
-15 -7 0 -23 -3 -35 -6 -17 -5 -23 -2 -23 9 0 17 14 25 48 26 13 1 22 -5 22
-14z m-90 -19 c0 -8 -14 -19 -31 -25 -40 -14 -39 -14 -39 4 0 9 10 20 23 25
32 13 47 12 47 -4z m936 -62 c-5 -13 -9 -14 -22 -3 -26 22 -38 51 -23 59 16
11 53 -35 45 -56z m-1021 36 c6 -10 -34 -30 -61 -30 -20 0 -17 28 4 33 31 8
51 7 57 -3z m-89 -38 c-2 -1 -17 -7 -35 -12 -24 -7 -31 -5 -31 5 0 18 53 36
62 21 4 -6 6 -12 4 -14z m1158 -38 c14 -20 16 -28 6 -37 -9 -9 -17 -5 -35 17
-13 17 -22 33 -19 38 9 15 29 8 48 -18z m49 -70 c18 -23 17 -54 0 -54 -15 1
-45 51 -39 66 8 20 18 17 39 -12z m-627 8 c17 -12 25 -44 14 -57 -8 -9 -8 -15
0 -20 15 -9 12 -51 -6 -69 -20 -20 -58 -20 -78 0 -18 17 -21 44 -6 44 6 0 10
-7 10 -15 0 -20 50 -32 61 -14 15 24 10 38 -16 45 -30 7 -33 24 -5 24 13 0 20
7 20 20 0 31 -30 37 -51 12 -19 -24 -29 -28 -29 -12 0 31 59 60 86 42z m128
-5 c25 -19 32 -87 12 -125 -33 -63 -101 -27 -101 53 0 68 45 104 89 72z m95
-39 c10 -28 5 -44 -16 -52 -33 -13 -57 36 -31 62 19 19 38 14 47 -10z m49 0
c-8 -13 -27 -44 -42 -70 -15 -27 -32 -48 -37 -48 -11 0 73 139 85 140 4 0 2
-10 -6 -22z m414 -47 c16 -29 14 -41 -6 -41 -16 1 -48 48 -41 60 11 18 30 10
47 -19z m-384 -29 c4 -36 -18 -52 -43 -32 -20 17 -19 47 3 59 26 15 37 8 40
-27z m452 -71 c0 -5 -6 -11 -14 -14 -19 -7 -50 39 -41 61 6 15 10 13 31 -11
13 -15 24 -32 24 -36z m-730 -26 c0 -8 -10 -16 -22 -16 l-23 -2 23 -4 c27 -5
30 -23 3 -23 -11 0 -22 -10 -26 -22 -6 -22 -7 -22 -15 4 -4 16 -7 36 -5 45 2
10 4 21 4 26 1 4 15 7 31 7 20 0 30 -5 30 -15z m66 -30 c19 -52 15 -62 -16
-43 -18 10 -24 10 -27 1 -7 -18 -23 -16 -23 2 0 24 28 85 39 85 5 0 17 -20 27
-45z m84 30 c0 -8 -7 -15 -15 -15 -10 0 -15 -11 -15 -35 0 -19 -4 -35 -10 -35
-5 0 -10 16 -10 35 0 24 -5 35 -15 35 -8 0 -15 7 -15 15 0 11 11 15 40 15 29
0 40 -4 40 -15z m616 -21 c13 -19 14 -28 5 -37 -9 -9 -16 -6 -31 13 -11 14
-20 31 -20 38 0 21 29 13 46 -14z m48 -66 c19 -27 21 -48 4 -48 -17 1 -51 48
-43 60 10 16 23 12 39 -12z m59 -83 c11 -16 13 -26 6 -30 -12 -8 -49 23 -49
42 0 21 23 15 43 -12z"/>
<path d="M782 1768 c-17 -17 -15 -93 3 -108 24 -20 49 -7 58 30 16 64 -24 115
-61 78z"/>
<path d="M586 1563 c-11 -11 -6 -23 9 -23 8 0 15 4 15 9 0 13 -16 22 -24 14z"/>
<path d="M667 1563 c-12 -11 -8 -23 8 -23 8 0 15 7 15 15 0 16 -12 20 -23 8z"/>
<path d="M751 1557 c-15 -19 -3 -49 18 -45 9 2 16 13 16 27 0 29 -17 37 -34
18z"/>
<path d="M1690 1470 l-21 -30 23 0 c20 0 24 5 23 30 0 17 -1 30 -2 30 -1 0
-11 -13 -23 -30z"/>
<path d="M1806 1514 c-18 -18 -21 -66 -6 -95 13 -23 46 -25 54 -3 10 27 7 89
-6 102 -16 16 -23 15 -42 -4z"/>
<path d="M1920 1480 c0 -19 11 -26 23 -14 8 8 -3 34 -14 34 -5 0 -9 -9 -9 -20z"/>
<path d="M1995 1430 c-7 -12 2 -30 16 -30 5 0 9 9 9 20 0 21 -15 27 -25 10z"/>
<path d="M1825 1300 c-3 -5 1 -10 10 -10 9 0 13 5 10 10 -3 6 -8 10 -10 10 -2
0 -7 -4 -10 -10z"/>
<path d="M1910 1300 c0 -5 5 -10 11 -10 5 0 7 5 4 10 -3 6 -8 10 -11 10 -2 0
-4 -4 -4 -10z"/>
<path d="M2000 1300 c0 -5 5 -10 11 -10 5 0 7 5 4 10 -3 6 -8 10 -11 10 -2 0
-4 -4 -4 -10z"/>
<path d="M1918 1263 c7 -3 16 -2 19 1 4 3 -2 6 -13 5 -11 0 -14 -3 -6 -6z"/>
<path d="M1086 867 c-26 -39 -7 -106 30 -107 13 0 34 43 34 68 0 21 -27 62
-40 62 -5 0 -16 -10 -24 -23z"/>
<path d="M1200 841 c0 -12 6 -21 16 -21 9 0 14 7 12 17 -5 25 -28 28 -28 4z"/>
<path d="M1280 781 c0 -12 6 -21 16 -21 9 0 14 7 12 17 -5 25 -28 28 -28 4z"/>
</g>
</svg>
